<mxfile host="Electron" agent="Mozilla/5.0 (Windows NT 10.0; Win64; x64) AppleWebKit/537.36 (KHTML, like Gecko) draw.io/25.0.1 Chrome/128.0.6613.186 Electron/32.2.6 Safari/537.36" version="25.0.1">
  <diagram name="Page-1" id="wRjpRyjysHpf7FW1bX7K">
    <mxGraphModel dx="1434" dy="836" grid="1" gridSize="10" guides="1" tooltips="1" connect="1" arrows="1" fold="1" page="1" pageScale="1" pageWidth="827" pageHeight="1169" math="0" shadow="0">
      <root>
        <mxCell id="0" />
        <mxCell id="1" parent="0" />
        <mxCell id="_VGwEhrZgKGgeQ6GYy3q-2" style="edgeStyle=orthogonalEdgeStyle;rounded=0;orthogonalLoop=1;jettySize=auto;html=1;" edge="1" parent="1" source="_VGwEhrZgKGgeQ6GYy3q-1">
          <mxGeometry relative="1" as="geometry">
            <mxPoint x="414" y="100" as="targetPoint" />
          </mxGeometry>
        </mxCell>
        <mxCell id="_VGwEhrZgKGgeQ6GYy3q-1" value="Start" style="ellipse;whiteSpace=wrap;html=1;" vertex="1" parent="1">
          <mxGeometry x="376" y="30" width="76" height="40" as="geometry" />
        </mxCell>
        <mxCell id="_VGwEhrZgKGgeQ6GYy3q-5" style="edgeStyle=orthogonalEdgeStyle;rounded=0;orthogonalLoop=1;jettySize=auto;html=1;" edge="1" parent="1" source="_VGwEhrZgKGgeQ6GYy3q-4">
          <mxGeometry relative="1" as="geometry">
            <mxPoint x="414" y="200" as="targetPoint" />
          </mxGeometry>
        </mxCell>
        <mxCell id="_VGwEhrZgKGgeQ6GYy3q-4" value="CALL Location" style="shape=process;whiteSpace=wrap;html=1;backgroundOutline=1;" vertex="1" parent="1">
          <mxGeometry x="354" y="100" width="120" height="60" as="geometry" />
        </mxCell>
        <mxCell id="_VGwEhrZgKGgeQ6GYy3q-8" style="edgeStyle=orthogonalEdgeStyle;rounded=0;orthogonalLoop=1;jettySize=auto;html=1;" edge="1" parent="1" source="_VGwEhrZgKGgeQ6GYy3q-7">
          <mxGeometry relative="1" as="geometry">
            <mxPoint x="414" y="290" as="targetPoint" />
          </mxGeometry>
        </mxCell>
        <mxCell id="_VGwEhrZgKGgeQ6GYy3q-7" value="Health conditions = input (&quot;Enter any health conditions you may have&quot;)" style="shape=parallelogram;perimeter=parallelogramPerimeter;whiteSpace=wrap;html=1;fixedSize=1;" vertex="1" parent="1">
          <mxGeometry x="354" y="200" width="120" height="60" as="geometry" />
        </mxCell>
        <mxCell id="_VGwEhrZgKGgeQ6GYy3q-10" style="edgeStyle=orthogonalEdgeStyle;rounded=0;orthogonalLoop=1;jettySize=auto;html=1;" edge="1" parent="1" source="_VGwEhrZgKGgeQ6GYy3q-9">
          <mxGeometry relative="1" as="geometry">
            <mxPoint x="414" y="400" as="targetPoint" />
          </mxGeometry>
        </mxCell>
        <mxCell id="_VGwEhrZgKGgeQ6GYy3q-9" value="QUERY Search request(health_conditions, none)" style="rounded=0;whiteSpace=wrap;html=1;" vertex="1" parent="1">
          <mxGeometry x="324" y="290" width="180" height="80" as="geometry" />
        </mxCell>
        <mxCell id="_VGwEhrZgKGgeQ6GYy3q-12" value="False" style="edgeStyle=orthogonalEdgeStyle;rounded=0;orthogonalLoop=1;jettySize=auto;html=1;" edge="1" parent="1" source="_VGwEhrZgKGgeQ6GYy3q-11">
          <mxGeometry relative="1" as="geometry">
            <mxPoint x="570" y="455" as="targetPoint" />
          </mxGeometry>
        </mxCell>
        <mxCell id="_VGwEhrZgKGgeQ6GYy3q-20" value="True" style="edgeStyle=orthogonalEdgeStyle;rounded=0;orthogonalLoop=1;jettySize=auto;html=1;" edge="1" parent="1" source="_VGwEhrZgKGgeQ6GYy3q-11">
          <mxGeometry relative="1" as="geometry">
            <mxPoint x="414" y="550" as="targetPoint" />
          </mxGeometry>
        </mxCell>
        <mxCell id="_VGwEhrZgKGgeQ6GYy3q-11" value="request match?" style="rhombus;whiteSpace=wrap;html=1;" vertex="1" parent="1">
          <mxGeometry x="309" y="400" width="210" height="110" as="geometry" />
        </mxCell>
        <mxCell id="_VGwEhrZgKGgeQ6GYy3q-16" value="OUTPUT (&quot;Invalid input please try again" style="shape=parallelogram;perimeter=parallelogramPerimeter;whiteSpace=wrap;html=1;fixedSize=1;" vertex="1" parent="1">
          <mxGeometry x="560" y="430" width="120" height="60" as="geometry" />
        </mxCell>
        <mxCell id="_VGwEhrZgKGgeQ6GYy3q-18" value="" style="endArrow=none;html=1;rounded=0;" edge="1" parent="1">
          <mxGeometry width="50" height="50" relative="1" as="geometry">
            <mxPoint x="620" y="430" as="sourcePoint" />
            <mxPoint x="620" y="190" as="targetPoint" />
          </mxGeometry>
        </mxCell>
        <mxCell id="_VGwEhrZgKGgeQ6GYy3q-19" value="" style="endArrow=classic;html=1;rounded=0;" edge="1" parent="1">
          <mxGeometry width="50" height="50" relative="1" as="geometry">
            <mxPoint x="620" y="190" as="sourcePoint" />
            <mxPoint x="420" y="190" as="targetPoint" />
          </mxGeometry>
        </mxCell>
        <mxCell id="_VGwEhrZgKGgeQ6GYy3q-22" value="True" style="edgeStyle=orthogonalEdgeStyle;rounded=0;orthogonalLoop=1;jettySize=auto;html=1;" edge="1" parent="1" source="_VGwEhrZgKGgeQ6GYy3q-21">
          <mxGeometry relative="1" as="geometry">
            <mxPoint x="270" y="600" as="targetPoint" />
          </mxGeometry>
        </mxCell>
        <mxCell id="_VGwEhrZgKGgeQ6GYy3q-23" value="False" style="edgeStyle=orthogonalEdgeStyle;rounded=0;orthogonalLoop=1;jettySize=auto;html=1;" edge="1" parent="1" source="_VGwEhrZgKGgeQ6GYy3q-21">
          <mxGeometry relative="1" as="geometry">
            <mxPoint x="414" y="680" as="targetPoint" />
          </mxGeometry>
        </mxCell>
        <mxCell id="_VGwEhrZgKGgeQ6GYy3q-21" value="user select (none)?" style="rhombus;whiteSpace=wrap;html=1;" vertex="1" parent="1">
          <mxGeometry x="316" y="560" width="196" height="80" as="geometry" />
        </mxCell>
        <mxCell id="_VGwEhrZgKGgeQ6GYy3q-24" value="QUERY ELSE personal_advice(Location)" style="rounded=0;whiteSpace=wrap;html=1;" vertex="1" parent="1">
          <mxGeometry x="150" y="570" width="120" height="60" as="geometry" />
        </mxCell>
        <mxCell id="_VGwEhrZgKGgeQ6GYy3q-29" style="edgeStyle=orthogonalEdgeStyle;rounded=0;orthogonalLoop=1;jettySize=auto;html=1;" edge="1" parent="1" source="_VGwEhrZgKGgeQ6GYy3q-25">
          <mxGeometry relative="1" as="geometry">
            <mxPoint x="414" y="870" as="targetPoint" />
          </mxGeometry>
        </mxCell>
        <mxCell id="_VGwEhrZgKGgeQ6GYy3q-25" value="QUERY personal_advice(health_conditions, Location)" style="rounded=0;whiteSpace=wrap;html=1;" vertex="1" parent="1">
          <mxGeometry x="354" y="680" width="120" height="60" as="geometry" />
        </mxCell>
        <mxCell id="_VGwEhrZgKGgeQ6GYy3q-30" style="edgeStyle=orthogonalEdgeStyle;rounded=0;orthogonalLoop=1;jettySize=auto;html=1;" edge="1" parent="1" source="_VGwEhrZgKGgeQ6GYy3q-26">
          <mxGeometry relative="1" as="geometry">
            <mxPoint x="410" y="970" as="targetPoint" />
          </mxGeometry>
        </mxCell>
        <mxCell id="_VGwEhrZgKGgeQ6GYy3q-26" value="OUTPUT personal_advice" style="shape=parallelogram;perimeter=parallelogramPerimeter;whiteSpace=wrap;html=1;fixedSize=1;" vertex="1" parent="1">
          <mxGeometry x="350" y="880" width="120" height="60" as="geometry" />
        </mxCell>
        <mxCell id="_VGwEhrZgKGgeQ6GYy3q-27" value="" style="endArrow=none;html=1;rounded=0;" edge="1" parent="1">
          <mxGeometry width="50" height="50" relative="1" as="geometry">
            <mxPoint x="210" y="910" as="sourcePoint" />
            <mxPoint x="210" y="630" as="targetPoint" />
          </mxGeometry>
        </mxCell>
        <mxCell id="_VGwEhrZgKGgeQ6GYy3q-28" value="" style="endArrow=classic;html=1;rounded=0;entryX=0;entryY=0.5;entryDx=0;entryDy=0;" edge="1" parent="1" target="_VGwEhrZgKGgeQ6GYy3q-26">
          <mxGeometry width="50" height="50" relative="1" as="geometry">
            <mxPoint x="210" y="910" as="sourcePoint" />
            <mxPoint x="340" y="910" as="targetPoint" />
          </mxGeometry>
        </mxCell>
        <mxCell id="_VGwEhrZgKGgeQ6GYy3q-31" value="End" style="ellipse;whiteSpace=wrap;html=1;" vertex="1" parent="1">
          <mxGeometry x="372" y="970" width="76" height="40" as="geometry" />
        </mxCell>
        <mxCell id="_VGwEhrZgKGgeQ6GYy3q-32" value="" style="endArrow=none;html=1;rounded=0;shape=link;" edge="1" parent="1">
          <mxGeometry width="50" height="50" relative="1" as="geometry">
            <mxPoint x="260" y="190" as="sourcePoint" />
            <mxPoint x="260" y="70" as="targetPoint" />
          </mxGeometry>
        </mxCell>
        <mxCell id="_VGwEhrZgKGgeQ6GYy3q-33" value="Call Location variable from weather flowchart" style="text;html=1;align=center;verticalAlign=middle;whiteSpace=wrap;rounded=0;" vertex="1" parent="1">
          <mxGeometry x="50" y="80" width="170" height="100" as="geometry" />
        </mxCell>
        <mxCell id="_VGwEhrZgKGgeQ6GYy3q-34" value="" style="endArrow=none;html=1;rounded=0;shape=link;" edge="1" parent="1">
          <mxGeometry width="50" height="50" relative="1" as="geometry">
            <mxPoint x="590" y="940" as="sourcePoint" />
            <mxPoint x="590" y="560" as="targetPoint" />
          </mxGeometry>
        </mxCell>
        <mxCell id="_VGwEhrZgKGgeQ6GYy3q-35" value="If user selected none, the query will give advice without keeping a health condition in mind" style="text;html=1;align=center;verticalAlign=middle;whiteSpace=wrap;rounded=0;" vertex="1" parent="1">
          <mxGeometry x="630" y="700" width="120" height="50" as="geometry" />
        </mxCell>
      </root>
    </mxGraphModel>
  </diagram>
</mxfile>
